<svg xmlns="http://www.w3.org/2000/svg" xmlns:svg="http://www.w3.org/2000/svg" id="Layer_1" x="0" y="0" version="1.1" viewBox="0 0 735 852" xml:space="preserve" style="enable-background:new 0 0 735 852"><metadata id="metadata58"/><defs id="defs56"><filter style="color-interpolation-filters:sRGB" id="filter4794" width="1.5" height="1.5" x="-.25" y="-.25"><feGaussianBlur id="feGaussianBlur4774" in="SourceGraphic" result="result8" stdDeviation="5"/><feComposite id="feComposite4776" in2="result8" operator="xor"/><feComposite id="feComposite4778" in2="result8" k1="0" k2="1" k3="0" k4="0" operator="arithmetic" result="result16"/><feComposite id="feComposite4780" in="result16" in2="result16" operator="xor" result="result6"/><feOffset id="feOffset4782" in="result16" result="result17"/><feDisplacementMap id="feDisplacementMap4784" in="result17" in2="result16" result="result4" scale="100" xChannelSelector="A" yChannelSelector="A"/><feComposite id="feComposite4786" in="SourceGraphic" in2="result4" k1="1" k2="0" k3="1" k4="0" operator="arithmetic" result="result2"/><feComposite id="feComposite4788" in="result6" in2="result2" operator="in" result="fbSourceGraphic"/><feComposite id="feComposite4790" in2="SourceGraphic" operator="in" result="result14"/><feComposite id="feComposite4792" in="result14" in2="SourceGraphic" operator="in" result="result15"/></filter><filter style="color-interpolation-filters:sRGB" id="filter4816" width="1.5" height="1.5" x="-.25" y="-.25"><feGaussianBlur id="feGaussianBlur4796" in="SourceGraphic" result="result8" stdDeviation="5"/><feComposite id="feComposite4798" in2="result8" operator="xor"/><feComposite id="feComposite4800" in2="result8" k1="0" k2="1" k3="0" k4="0" operator="arithmetic" result="result16"/><feComposite id="feComposite4802" in="result16" in2="result16" operator="xor" result="result6"/><feOffset id="feOffset4804" in="result16" result="result17"/><feDisplacementMap id="feDisplacementMap4806" in="result17" in2="result16" result="result4" scale="100" xChannelSelector="A" yChannelSelector="A"/><feComposite id="feComposite4808" in="SourceGraphic" in2="result4" k1="1" k2="0" k3="1" k4="0" operator="arithmetic" result="result2"/><feComposite id="feComposite4810" in="result6" in2="result2" operator="in" result="fbSourceGraphic"/><feComposite id="feComposite4812" in2="SourceGraphic" operator="in" result="result14"/><feComposite id="feComposite4814" in="result14" in2="SourceGraphic" operator="in" result="result15"/></filter><filter style="color-interpolation-filters:sRGB" id="filter4838" width="1.5" height="1.5" x="-.25" y="-.25"><feGaussianBlur id="feGaussianBlur4818" in="SourceGraphic" result="result8" stdDeviation="5"/><feComposite id="feComposite4820" in2="result8" operator="xor"/><feComposite id="feComposite4822" in2="result8" k1="0" k2="1" k3="0" k4="0" operator="arithmetic" result="result16"/><feComposite id="feComposite4824" in="result16" in2="result16" operator="xor" result="result6"/><feOffset id="feOffset4826" in="result16" result="result17"/><feDisplacementMap id="feDisplacementMap4828" in="result17" in2="result16" result="result4" scale="100" xChannelSelector="A" yChannelSelector="A"/><feComposite id="feComposite4830" in="SourceGraphic" in2="result4" k1="1" k2="0" k3="1" k4="0" operator="arithmetic" result="result2"/><feComposite id="feComposite4832" in="result6" in2="result2" operator="in" result="fbSourceGraphic"/><feComposite id="feComposite4834" in2="SourceGraphic" operator="in" result="result14"/><feComposite id="feComposite4836" in="result14" in2="SourceGraphic" operator="in" result="result15"/></filter><filter style="color-interpolation-filters:sRGB" id="filter4860" width="1.5" height="1.5" x="-.25" y="-.25"><feGaussianBlur id="feGaussianBlur4840" in="SourceGraphic" result="result8" stdDeviation="5"/><feComposite id="feComposite4842" in2="result8" operator="xor"/><feComposite id="feComposite4844" in2="result8" k1="0" k2="1" k3="0" k4="0" operator="arithmetic" result="result16"/><feComposite id="feComposite4846" in="result16" in2="result16" operator="xor" result="result6"/><feOffset id="feOffset4848" in="result16" result="result17"/><feDisplacementMap id="feDisplacementMap4850" in="result17" in2="result16" result="result4" scale="100" xChannelSelector="A" yChannelSelector="A"/><feComposite id="feComposite4852" in="SourceGraphic" in2="result4" k1="1" k2="0" k3="1" k4="0" operator="arithmetic" result="result2"/><feComposite id="feComposite4854" in="result6" in2="result2" operator="in" result="fbSourceGraphic"/><feComposite id="feComposite4856" in2="SourceGraphic" operator="in" result="result14"/><feComposite id="feComposite4858" in="result14" in2="SourceGraphic" operator="in" result="result15"/></filter><filter style="color-interpolation-filters:sRGB" id="filter4882" width="1.5" height="1.5" x="-.25" y="-.25"><feGaussianBlur id="feGaussianBlur4862" in="SourceGraphic" result="result8" stdDeviation="5"/><feComposite id="feComposite4864" in2="result8" operator="xor"/><feComposite id="feComposite4866" in2="result8" k1="0" k2="1" k3="0" k4="0" operator="arithmetic" result="result16"/><feComposite id="feComposite4868" in="result16" in2="result16" operator="xor" result="result6"/><feOffset id="feOffset4870" in="result16" result="result17"/><feDisplacementMap id="feDisplacementMap4872" in="result17" in2="result16" result="result4" scale="100" xChannelSelector="A" yChannelSelector="A"/><feComposite id="feComposite4874" in="SourceGraphic" in2="result4" k1="1" k2="0" k3="1" k4="0" operator="arithmetic" result="result2"/><feComposite id="feComposite4876" in="result6" in2="result2" operator="in" result="fbSourceGraphic"/><feComposite id="feComposite4878" in2="SourceGraphic" operator="in" result="result14"/><feComposite id="feComposite4880" in="result14" in2="SourceGraphic" operator="in" result="result15"/></filter><filter style="color-interpolation-filters:sRGB" id="filter4904" width="1.5" height="1.5" x="-.25" y="-.25"><feGaussianBlur id="feGaussianBlur4884" in="SourceGraphic" result="result8" stdDeviation="5"/><feComposite id="feComposite4886" in2="result8" operator="xor"/><feComposite id="feComposite4888" in2="result8" k1="0" k2="1" k3="0" k4="0" operator="arithmetic" result="result16"/><feComposite id="feComposite4890" in="result16" in2="result16" operator="xor" result="result6"/><feOffset id="feOffset4892" in="result16" result="result17"/><feDisplacementMap id="feDisplacementMap4894" in="result17" in2="result16" result="result4" scale="100" xChannelSelector="A" yChannelSelector="A"/><feComposite id="feComposite4896" in="SourceGraphic" in2="result4" k1="1" k2="0" k3="1" k4="0" operator="arithmetic" result="result2"/><feComposite id="feComposite4898" in="result6" in2="result2" operator="in" result="fbSourceGraphic"/><feComposite id="feComposite4900" in2="SourceGraphic" operator="in" result="result14"/><feComposite id="feComposite4902" in="result14" in2="SourceGraphic" operator="in" result="result15"/></filter><filter style="color-interpolation-filters:sRGB" id="filter4926" width="1.5" height="1.5" x="-.25" y="-.25"><feGaussianBlur id="feGaussianBlur4906" in="SourceGraphic" result="result8" stdDeviation="5"/><feComposite id="feComposite4908" in2="result8" operator="xor"/><feComposite id="feComposite4910" in2="result8" k1="0" k2="1" k3="0" k4="0" operator="arithmetic" result="result16"/><feComposite id="feComposite4912" in="result16" in2="result16" operator="xor" result="result6"/><feOffset id="feOffset4914" in="result16" result="result17"/><feDisplacementMap id="feDisplacementMap4916" in="result17" in2="result16" result="result4" scale="100" xChannelSelector="A" yChannelSelector="A"/><feComposite id="feComposite4918" in="SourceGraphic" in2="result4" k1="1" k2="0" k3="1" k4="0" operator="arithmetic" result="result2"/><feComposite id="feComposite4920" in="result6" in2="result2" operator="in" result="fbSourceGraphic"/><feComposite id="feComposite4922" in2="SourceGraphic" operator="in" result="result14"/><feComposite id="feComposite4924" in="result14" in2="SourceGraphic" operator="in" result="result15"/></filter><filter style="color-interpolation-filters:sRGB" id="filter4948" width="1.5" height="1.5" x="-.25" y="-.25"><feGaussianBlur id="feGaussianBlur4928" in="SourceGraphic" result="result8" stdDeviation="5"/><feComposite id="feComposite4930" in2="result8" operator="xor"/><feComposite id="feComposite4932" in2="result8" k1="0" k2="1" k3="0" k4="0" operator="arithmetic" result="result16"/><feComposite id="feComposite4934" in="result16" in2="result16" operator="xor" result="result6"/><feOffset id="feOffset4936" in="result16" result="result17"/><feDisplacementMap id="feDisplacementMap4938" in="result17" in2="result16" result="result4" scale="100" xChannelSelector="A" yChannelSelector="A"/><feComposite id="feComposite4940" in="SourceGraphic" in2="result4" k1="1" k2="0" k3="1" k4="0" operator="arithmetic" result="result2"/><feComposite id="feComposite4942" in="result6" in2="result2" operator="in" result="fbSourceGraphic"/><feComposite id="feComposite4944" in2="SourceGraphic" operator="in" result="result14"/><feComposite id="feComposite4946" in="result14" in2="SourceGraphic" operator="in" result="result15"/></filter><filter style="color-interpolation-filters:sRGB" id="filter6086" width="1.5" height="1.5" x="-.25" y="-.25"><feGaussianBlur id="feGaussianBlur6062" result="result1" stdDeviation="1"/><feGaussianBlur id="feGaussianBlur6064" in="result1" result="result6" stdDeviation="10"/><feComposite id="feComposite6066" in="result6" in2="result1" operator="atop" result="result8"/><feComposite id="feComposite6068" in="result6" in2="result8" operator="xor" result="fbSourceGraphic"/><feColorMatrix id="feColorMatrix6070" in="fbSourceGraphic" result="fbSourceGraphicAlpha" values="0 0 0 -1 0 0 0 0 -1 0 0 0 0 -1 0 0 0 0 2 0"/><feGaussianBlur id="feGaussianBlur6072" in="fbSourceGraphicAlpha" result="result0" stdDeviation="1"/><feSpecularLighting id="feSpecularLighting6076" in="result0" lighting-color="#fff" result="result1" specularConstant="1.5" specularExponent="35" surfaceScale="-2"><feDistantLight id="feDistantLight6074" azimuth="230" elevation="60"/></feSpecularLighting><feComposite id="feComposite6078" in="result1" in2="fbSourceGraphicAlpha" operator="in" result="result2"/><feComposite id="feComposite6080" in="fbSourceGraphic" in2="result2" k1="0" k2="1" k3="1" k4="0" operator="arithmetic" result="result4"/><feComposite id="feComposite6082" in2="result4" operator="atop" result="result91"/><feBlend id="feBlend6084" in2="result91" mode="multiply"/></filter><filter style="color-interpolation-filters:sRGB" id="filter6112" width="1.5" height="1.5" x="-.25" y="-.25"><feGaussianBlur id="feGaussianBlur6088" result="result1" stdDeviation="1"/><feGaussianBlur id="feGaussianBlur6090" in="result1" result="result6" stdDeviation="10"/><feComposite id="feComposite6092" in="result6" in2="result1" operator="atop" result="result8"/><feComposite id="feComposite6094" in="result6" in2="result8" operator="xor" result="fbSourceGraphic"/><feColorMatrix id="feColorMatrix6096" in="fbSourceGraphic" result="fbSourceGraphicAlpha" values="0 0 0 -1 0 0 0 0 -1 0 0 0 0 -1 0 0 0 0 2 0"/><feGaussianBlur id="feGaussianBlur6098" in="fbSourceGraphicAlpha" result="result0" stdDeviation="1"/><feSpecularLighting id="feSpecularLighting6102" in="result0" lighting-color="#fff" result="result1" specularConstant="1.5" specularExponent="35" surfaceScale="-2"><feDistantLight id="feDistantLight6100" azimuth="230" elevation="60"/></feSpecularLighting><feComposite id="feComposite6104" in="result1" in2="fbSourceGraphicAlpha" operator="in" result="result2"/><feComposite id="feComposite6106" in="fbSourceGraphic" in2="result2" k1="0" k2="1" k3="1" k4="0" operator="arithmetic" result="result4"/><feComposite id="feComposite6108" in2="result4" operator="atop" result="result91"/><feBlend id="feBlend6110" in2="result91" mode="multiply"/></filter><filter style="color-interpolation-filters:sRGB" id="filter6138" width="1.5" height="1.5" x="-.25" y="-.25"><feGaussianBlur id="feGaussianBlur6114" result="result1" stdDeviation="1"/><feGaussianBlur id="feGaussianBlur6116" in="result1" result="result6" stdDeviation="10"/><feComposite id="feComposite6118" in="result6" in2="result1" operator="atop" result="result8"/><feComposite id="feComposite6120" in="result6" in2="result8" operator="xor" result="fbSourceGraphic"/><feColorMatrix id="feColorMatrix6122" in="fbSourceGraphic" result="fbSourceGraphicAlpha" values="0 0 0 -1 0 0 0 0 -1 0 0 0 0 -1 0 0 0 0 2 0"/><feGaussianBlur id="feGaussianBlur6124" in="fbSourceGraphicAlpha" result="result0" stdDeviation="1"/><feSpecularLighting id="feSpecularLighting6128" in="result0" lighting-color="#fff" result="result1" specularConstant="1.5" specularExponent="35" surfaceScale="-2"><feDistantLight id="feDistantLight6126" azimuth="230" elevation="60"/></feSpecularLighting><feComposite id="feComposite6130" in="result1" in2="fbSourceGraphicAlpha" operator="in" result="result2"/><feComposite id="feComposite6132" in="fbSourceGraphic" in2="result2" k1="0" k2="1" k3="1" k4="0" operator="arithmetic" result="result4"/><feComposite id="feComposite6134" in2="result4" operator="atop" result="result91"/><feBlend id="feBlend6136" in2="result91" mode="multiply"/></filter><filter style="color-interpolation-filters:sRGB" id="filter6164" width="1.5" height="1.5" x="-.25" y="-.25"><feGaussianBlur id="feGaussianBlur6140" result="result1" stdDeviation="1"/><feGaussianBlur id="feGaussianBlur6142" in="result1" result="result6" stdDeviation="10"/><feComposite id="feComposite6144" in="result6" in2="result1" operator="atop" result="result8"/><feComposite id="feComposite6146" in="result6" in2="result8" operator="xor" result="fbSourceGraphic"/><feColorMatrix id="feColorMatrix6148" in="fbSourceGraphic" result="fbSourceGraphicAlpha" values="0 0 0 -1 0 0 0 0 -1 0 0 0 0 -1 0 0 0 0 2 0"/><feGaussianBlur id="feGaussianBlur6150" in="fbSourceGraphicAlpha" result="result0" stdDeviation="1"/><feSpecularLighting id="feSpecularLighting6154" in="result0" lighting-color="#fff" result="result1" specularConstant="1.5" specularExponent="35" surfaceScale="-2"><feDistantLight id="feDistantLight6152" azimuth="230" elevation="60"/></feSpecularLighting><feComposite id="feComposite6156" in="result1" in2="fbSourceGraphicAlpha" operator="in" result="result2"/><feComposite id="feComposite6158" in="fbSourceGraphic" in2="result2" k1="0" k2="1" k3="1" k4="0" operator="arithmetic" result="result4"/><feComposite id="feComposite6160" in2="result4" operator="atop" result="result91"/><feBlend id="feBlend6162" in2="result91" mode="multiply"/></filter><filter style="color-interpolation-filters:sRGB" id="filter6190" width="1.5" height="1.5" x="-.25" y="-.25"><feGaussianBlur id="feGaussianBlur6166" result="result1" stdDeviation="1"/><feGaussianBlur id="feGaussianBlur6168" in="result1" result="result6" stdDeviation="10"/><feComposite id="feComposite6170" in="result6" in2="result1" operator="atop" result="result8"/><feComposite id="feComposite6172" in="result6" in2="result8" operator="xor" result="fbSourceGraphic"/><feColorMatrix id="feColorMatrix6174" in="fbSourceGraphic" result="fbSourceGraphicAlpha" values="0 0 0 -1 0 0 0 0 -1 0 0 0 0 -1 0 0 0 0 2 0"/><feGaussianBlur id="feGaussianBlur6176" in="fbSourceGraphicAlpha" result="result0" stdDeviation="1"/><feSpecularLighting id="feSpecularLighting6180" in="result0" lighting-color="#fff" result="result1" specularConstant="1.5" specularExponent="35" surfaceScale="-2"><feDistantLight id="feDistantLight6178" azimuth="230" elevation="60"/></feSpecularLighting><feComposite id="feComposite6182" in="result1" in2="fbSourceGraphicAlpha" operator="in" result="result2"/><feComposite id="feComposite6184" in="fbSourceGraphic" in2="result2" k1="0" k2="1" k3="1" k4="0" operator="arithmetic" result="result4"/><feComposite id="feComposite6186" in2="result4" operator="atop" result="result91"/><feBlend id="feBlend6188" in2="result91" mode="multiply"/></filter><filter style="color-interpolation-filters:sRGB" id="filter6216" width="1.5" height="1.5" x="-.25" y="-.25"><feGaussianBlur id="feGaussianBlur6192" result="result1" stdDeviation="1"/><feGaussianBlur id="feGaussianBlur6194" in="result1" result="result6" stdDeviation="10"/><feComposite id="feComposite6196" in="result6" in2="result1" operator="atop" result="result8"/><feComposite id="feComposite6198" in="result6" in2="result8" operator="xor" result="fbSourceGraphic"/><feColorMatrix id="feColorMatrix6200" in="fbSourceGraphic" result="fbSourceGraphicAlpha" values="0 0 0 -1 0 0 0 0 -1 0 0 0 0 -1 0 0 0 0 2 0"/><feGaussianBlur id="feGaussianBlur6202" in="fbSourceGraphicAlpha" result="result0" stdDeviation="1"/><feSpecularLighting id="feSpecularLighting6206" in="result0" lighting-color="#fff" result="result1" specularConstant="1.5" specularExponent="35" surfaceScale="-2"><feDistantLight id="feDistantLight6204" azimuth="230" elevation="60"/></feSpecularLighting><feComposite id="feComposite6208" in="result1" in2="fbSourceGraphicAlpha" operator="in" result="result2"/><feComposite id="feComposite6210" in="fbSourceGraphic" in2="result2" k1="0" k2="1" k3="1" k4="0" operator="arithmetic" result="result4"/><feComposite id="feComposite6212" in2="result4" operator="atop" result="result91"/><feBlend id="feBlend6214" in2="result91" mode="multiply"/></filter><filter style="color-interpolation-filters:sRGB" id="filter6242" width="1.5" height="1.5" x="-.25" y="-.25"><feGaussianBlur id="feGaussianBlur6218" result="result1" stdDeviation="1"/><feGaussianBlur id="feGaussianBlur6220" in="result1" result="result6" stdDeviation="10"/><feComposite id="feComposite6222" in="result6" in2="result1" operator="atop" result="result8"/><feComposite id="feComposite6224" in="result6" in2="result8" operator="xor" result="fbSourceGraphic"/><feColorMatrix id="feColorMatrix6226" in="fbSourceGraphic" result="fbSourceGraphicAlpha" values="0 0 0 -1 0 0 0 0 -1 0 0 0 0 -1 0 0 0 0 2 0"/><feGaussianBlur id="feGaussianBlur6228" in="fbSourceGraphicAlpha" result="result0" stdDeviation="1"/><feSpecularLighting id="feSpecularLighting6232" in="result0" lighting-color="#fff" result="result1" specularConstant="1.5" specularExponent="35" surfaceScale="-2"><feDistantLight id="feDistantLight6230" azimuth="230" elevation="60"/></feSpecularLighting><feComposite id="feComposite6234" in="result1" in2="fbSourceGraphicAlpha" operator="in" result="result2"/><feComposite id="feComposite6236" in="fbSourceGraphic" in2="result2" k1="0" k2="1" k3="1" k4="0" operator="arithmetic" result="result4"/><feComposite id="feComposite6238" in2="result4" operator="atop" result="result91"/><feBlend id="feBlend6240" in2="result91" mode="multiply"/></filter><filter style="color-interpolation-filters:sRGB" id="filter6268" width="1.5" height="1.5" x="-.25" y="-.25"><feGaussianBlur id="feGaussianBlur6244" result="result1" stdDeviation="1"/><feGaussianBlur id="feGaussianBlur6246" in="result1" result="result6" stdDeviation="10"/><feComposite id="feComposite6248" in="result6" in2="result1" operator="atop" result="result8"/><feComposite id="feComposite6250" in="result6" in2="result8" operator="xor" result="fbSourceGraphic"/><feColorMatrix id="feColorMatrix6252" in="fbSourceGraphic" result="fbSourceGraphicAlpha" values="0 0 0 -1 0 0 0 0 -1 0 0 0 0 -1 0 0 0 0 2 0"/><feGaussianBlur id="feGaussianBlur6254" in="fbSourceGraphicAlpha" result="result0" stdDeviation="1"/><feSpecularLighting id="feSpecularLighting6258" in="result0" lighting-color="#fff" result="result1" specularConstant="1.5" specularExponent="35" surfaceScale="-2"><feDistantLight id="feDistantLight6256" azimuth="230" elevation="60"/></feSpecularLighting><feComposite id="feComposite6260" in="result1" in2="fbSourceGraphicAlpha" operator="in" result="result2"/><feComposite id="feComposite6262" in="fbSourceGraphic" in2="result2" k1="0" k2="1" k3="1" k4="0" operator="arithmetic" result="result4"/><feComposite id="feComposite6264" in2="result4" operator="atop" result="result91"/><feBlend id="feBlend6266" in2="result91" mode="multiply"/></filter><filter id="filter3486" style="color-interpolation-filters:sRGB"><feColorMatrix id="feColorMatrix3484" values="2 -0.5 -0.5 0 0 -0.5 2 -0.5 0 0 -0.5 -0.5 2 0 0 0 0 0 1 0"/></filter></defs><style id="style2" type="text/css">.st0{fill:#428bca}.st1{opacity:.25;fill:url(#SVGID_1_);enable-background:new}.st2{fill:#3674a8}.st3{fill:#e6b35a}.st5{opacity:.9;fill:#fff;enable-background:new}</style><title id="title4">shiny</title><path style="fill:#4a154b;fill-opacity:1" id="path1738" d="M715.1,226.8L366.9,16l-347,210.8v401.5L367.5,829l347.6-200.7V226.8z" class="st0"/><linearGradient id="SVGID_1_" x1="366.14" x2="367.44" y1="-182.39" y2="281.13" gradientTransform="matrix(1 0 0 1 0 60)" gradientUnits="userSpaceOnUse"><stop style="stop-color:#fff;stop-opacity:.83" id="stop8" offset="0"/><stop style="stop-color:#fff;stop-opacity:.37" id="stop10" offset=".56"/><stop style="stop-color:#fff;stop-opacity:0" id="stop12" offset="1"/></linearGradient><path id="path15" d="M366.9,340.4c128.2,0,238.6-57,287.8-138.8L367.5,35.8l0,0L79.4,202.2C128.8,283.7,238.9,340.4,366.9,340.4z" class="st1"/><g style="filter:url(#filter3486)" id="g3465" transform="matrix(2.1523403,0,0,2.1523403,-164.16713,845.34452)"><path id="path2046" fill="#e01e5a" d="m 138.87,316.54 c 0,24.52 -19.88,44.44 -44.44,44.44 -24.56,0 -44.4,-19.92 -44.4,-44.44 0,-24.52 19.88,-44.44 44.44,-44.44 h 44.44 v 44.44 z" transform="matrix(0.68023629,0,0,0.68023629,67.230909,-374.098)" style="stroke-width:4;filter:url(#filter6268)"/><path id="path2048" fill="#e01e5a" d="m 161.07,316.54 c 0,-24.52 19.88,-44.44 44.44,-44.44 24.56,0 44.44,19.88 44.44,44.44 v 111.08 c 0,24.52 -19.88,44.44 -44.44,44.44 -24.56,0 -44.44,-19.88 -44.44,-44.44 z" transform="matrix(0.68023629,0,0,0.68023629,67.230909,-374.098)" style="stroke-width:4;filter:url(#filter6242)"/><path id="path2050" fill="#36c5f0" d="m 205.51,138.82 c -24.52,0 -44.44,-19.88 -44.44,-44.44 0,-24.56 19.92,-44.4 44.44,-44.4 24.52,0 44.44,19.88 44.44,44.44 v 44.44 h -44.44 z" transform="matrix(0.68023629,0,0,0.68023629,67.230909,-374.098)" style="stroke-width:4;filter:url(#filter6216)"/><path id="path2052" fill="#36c5f0" d="m 205.51,161.06 c 24.52,0 44.44,19.88 44.44,44.44 0,24.56 -19.88,44.44 -44.44,44.44 H 94.43 c -24.52,0 -44.44,-19.88 -44.44,-44.44 0,-24.56 19.88,-44.44 44.44,-44.44 z" transform="matrix(0.68023629,0,0,0.68023629,67.230909,-374.098)" style="stroke-width:4;filter:url(#filter6190)"/><path id="path2054" fill="#2eb67d" d="m 383.23,205.46 c 0,-24.52 19.88,-44.44 44.44,-44.44 24.52,0 44.44,19.88 44.44,44.44 0,24.56 -19.88,44.44 -44.44,44.44 h -44.44 z" transform="matrix(0.68023629,0,0,0.68023629,67.230909,-374.098)" style="stroke-width:4;filter:url(#filter6164)"/><path id="path2056" fill="#2eb67d" d="m 360.99,205.46 c 0,24.52 -19.88,44.44 -44.44,44.44 -24.52,0 -44.44,-19.88 -44.44,-44.44 V 94.42 c 0.04,-24.56 19.92,-44.44 44.48,-44.44 24.52,0 44.44,19.88 44.44,44.44 v 111.04 z" transform="matrix(0.68023629,0,0,0.68023629,67.230909,-374.098)" style="stroke-width:4;filter:url(#filter6138)"/><path style="fill:#ecb22e;stroke-width:4;filter:url(#filter6112)" id="path2058" d="m 316.59,383.18 c 24.52,0 44.44,19.88 44.44,44.44 0,24.52 -19.88,44.44 -44.44,44.44 -24.52,0 -44.44,-19.88 -44.44,-44.44 v -44.44 z" transform="matrix(0.68023629,0,0,0.68023629,67.230909,-374.098)"/><path style="fill:#ecb22e;stroke-width:4;filter:url(#filter6086)" id="path2060" d="m 316.59,360.98 c -24.52,0 -44.44,-19.88 -44.44,-44.44 0,-24.56 19.88,-44.44 44.44,-44.44 h 111.08 c 24.52,0 44.44,19.88 44.44,44.44 0,24.56 -19.88,44.44 -44.44,44.44 z" transform="matrix(0.68023629,0,0,0.68023629,67.230909,-374.098)"/></g><path id="path17" d="M734.9,637.4V213.1l-29.3-16.9L427.8,35.8L367.5,1l-60.3,34.8L29.4,196.2L0.1,213.1v424.2l29.3,16.9 l281.3,162.4l56.9,32.8l56.9-32.8l281.3-162.4L734.9,637.4z M29.4,621.5V231l50-28.9L367.5,35.8l0,0l287.2,165.8l50.9,29.4v390.5 L367.5,816.7L29.4,621.5z" class="st2" style="fill:#320f33;fill-opacity:1"/><path id="path19" d="M367,633.9c0.3-0.3,0.6-0.6,0.9-0.9h-0.3C367.5,633.3,367.3,633.6,367,633.9z" class="st3"/><path id="path51" d="m 94.192477,441.52519 v 0 c -3.30803,-0.10065 -1.102695,0 0,0 z m -0.10032,0 c -3.207776,-0.10065 -1.804363,0 -0.701668,0 H 95.09462 94.9943 94.09208 c 0.701712,0 1.00243,0.10065 0,0 z m 0.90222,0 c 34.984973,0.80195 71.573803,-7.31778 82.199613,-48.91885 6.91684,-26.86527 -10.32502,-46.4128 -25.56207,-66.06049 -0.10065,-0.10065 -0.20049,-0.20027 -0.20049,-0.40096 -0.60149,-2.50611 -17.14164,-17.7431 -21.75283,-23.45702 0,-0.10065 -0.10065,-0.10065 -0.2003,-0.20044 -2.20534,-1.60394 -4.5109,-9.72366 -5.61358,-14.23458 -0.50121,-1.90463 -0.50121,-3.80927 -0.10032,-5.71395 4.00968,-20.4496 6.21506,-35.38589 33.38103,-30.97522 19.54752,3.20781 9.42288,31.87743 19.94849,34.68423 h 0.20043 c 6.31539,0.60148 18.64532,-14.53522 20.44972,-19.64769 7.01705,-19.84818 -33.48133,-31.97766 -45.81128,-31.17574 -24.76017,1.50366 -40.99957,14.93626 -50.92368,37.09013 -18.244329,40.79906 15.83847,67.96507 36.48864,95.93303 15.63798,21.15139 14.93628,39.99714 -4.21031,58.14131 -21.05107,19.9484 -45.510471,-7.51832 -48.317297,-26.86532 -2.506087,-17.74309 -2.305599,-30.07305 -17.141643,-7.51826 -13.733365,20.95089 0.40099,48.21707 27.165987,49.31977 z M 645.8325,344.68995 v 0.20025 c -0.40098,4.31048 -1.30317,8.52073 -2.80687,12.63069 -2.60632,6.81657 -5.91433,13.43267 -9.92409,19.54752 -4.91189,7.51829 -7.51821,10.5256 -12.63065,17.14161 -9.62343,12.53049 -17.0414,21.85311 -28.2687,33.78209 -15.63799,16.54016 -33.08036,35.48618 -52.12665,49.01909 -27.16595,19.44724 -61.44926,24.76009 -93.92815,27.76745 -95.03083,8.62096 -234.87053,21.45212 -264.34215,124.30191 -0.20028,0.60148 -0.7017,0.90224 -1.3032,0.70175 -0.30068,-0.10065 -0.50117,-0.20028 -0.60142,-0.5012 -28.87016,-49.31981 -90.920909,-85.50776 -148.460691,-83.80359 -0.601452,0.10065 -1.102667,-0.20048 -1.202904,-0.80197 -0.100353,-0.60146 0.200488,-1.10266 0.801954,-1.20291 148.159921,-73.57875 299.527631,-38.29304 459.516291,-66.8624 39.99717,-7.11729 73.57876,-33.38115 97.73743,-64.95784 9.22241,-11.92899 21.05113,-22.05354 29.1709,-34.78449 1.30312,-2.10513 8.01947,-18.84581 -2.40588,-11.72848 -16.1392,10.92652 -29.77231,24.45943 -47.31494,32.98012 -0.80195,0.40096 -1.70413,0.80201 -2.6063,1.10267 -0.30069,0.10065 -0.50124,0.40098 -0.60148,0.70171 -2.50607,8.21995 -6.01463,16.1392 -10.52556,23.45696 -5.31294,8.3202 -12.43018,15.43753 -20.85069,20.7504 -7.81899,5.21265 -16.94112,8.21996 -26.26379,8.92166 -1.30317,0.10065 -2.50605,0.10065 -3.80927,0.10065 -7.41804,0 -12.22968,-0.60145 -17.94357,-3.50851 -7.31776,-3.80926 -9.62339,-10.02438 -10.12465,-17.54263 -0.30068,-4.51094 2.50613,-9.42286 4.81176,-13.13187 2.3056,-3.70903 6.01458,-7.81899 8.62091,-8.92166 l 0.20031,-0.10065 c 13.03161,-9.6234 35.18546,-10.32508 50.22202,-14.43504 0.40096,-0.10065 0.70168,-0.40101 0.70168,-0.70175 l 7.51822,-27.46671 c 0.20031,-0.60144 -0.20022,-1.10267 -0.70165,-1.30319 -0.40096,-0.10065 -0.90221,0.10065 -1.1027,0.40097 -3.80925,5.61363 -8.01946,10.92657 -12.53042,15.93877 -5.91438,6.21512 -10.52554,10.02432 -14.03406,11.42779 -4.00978,1.50359 -8.22,2.40578 -12.43028,2.60629 -5.01215,0.3007 -9.32258,-1.70418 -12.63067,-5.91438 -3.30802,-4.21022 -5.11237,-10.42532 -5.51336,-18.64532 -0.10065,-1.30314 -0.10065,-2.80676 0,-4.41067 0.10065,-0.60148 -0.20051,-1.10268 -0.7017,-1.3032 -0.60141,-0.10065 -1.1027,0.20029 -1.30319,0.70172 -1.60391,3.10758 -3.20778,6.01463 -4.81166,8.62094 -4.71144,8.21995 -10.62583,15.73822 -17.34216,22.45458 -6.61603,6.61605 -13.03166,10.12456 -18.946,10.52552 -11.12705,0.70171 -17.14164,-5.61363 -17.94359,-18.84576 -0.80195,-12.63066 4.21021,-38.59377 15.03653,-77.28777 0.60145,-1.70412 0.80196,-3.50853 0.70168,-5.21266 -0.2003,-3.50851 -2.20532,-4.91194 -6.3153,-4.61118 -4.71145,0.40095 -9.22244,2.30559 -12.93145,5.41316 -4.61115,3.9095 -8.42045,8.72114 -11.127,14.13429 -3.30802,6.01465 -6.21509,12.2297 -8.92165,18.54506 -2.80685,6.91685 -5.11245,14.13437 -6.91682,21.4521 -2.00494,8.11974 -3.70901,14.93634 -4.81171,20.2492 -1.20295,5.51344 -2.3056,11.32755 -3.40829,17.34216 -0.80191,4.21022 -1.70415,9.42286 -1.90462,10.22486 l -0.20027,0.80192 -27.56698,1.80441 -0.10065,-1.00246 c -0.20024,-2.40587 1.8044,-10.92652 5.81414,-25.86281 -0.802,1.40339 -1.60392,2.8068 -2.4058,4.21018 -4.71148,8.21997 -10.52562,15.73831 -17.24194,22.45454 -6.61608,6.61605 -13.03165,10.12462 -18.946,10.52564 -0.40103,0 -0.80199,0 -1.20294,0 -9.72364,0 -15.23707,-7.6185 -16.13921,-22.65507 -0.2003,-3.00731 -0.30076,-6.01459 -0.2003,-9.12218 0.10065,-0.60147 -0.20024,-1.10267 -0.70168,-1.30315 -0.60145,-0.10065 -1.10266,0.20021 -1.30319,0.70168 -15.13674,27.76748 -28.76983,41.80156 -41.40051,42.60353 -11.12704,0.70169 -17.14169,-5.91436 -18.04385,-19.748 -1.00241,-15.33721 3.20775,-37.79179 12.53046,-66.66193 2.00486,-7.11729 2.90703,-12.02916 2.7065,-14.63554 -0.30068,-4.00973 -2.1051,-4.51099 -3.60868,-4.51099 h -0.40102 c -1.30316,0.10065 -4.10998,0.90224 -10.02434,4.61125 -5.21264,3.40827 -9.72365,7.61847 -13.43264,12.53041 -4.31041,5.61365 -7.7187,11.92896 -10.22483,18.54508 -2.60634,7.01701 -4.71143,13.13189 -6.21508,18.24429 -1.50369,5.11239 -3.00731,11.42778 -4.51102,18.64527 -1.50364,7.21754 -2.80675,13.43265 -4.00972,18.04386 -1.2029,4.61117 -2.40582,9.92412 -3.60877,16.03895 l -0.20023,0.80193 -26.46433,1.70416 c -0.60142,0 -1.10269,-0.40093 -1.10269,-1.00242 0,-0.10065 0,-0.2003 0,-0.40098 v 0 c 3.90951,-13.53282 9.42291,-35.48622 16.43997,-65.15829 7.01701,-29.67205 13.43264,-53.42981 18.6453,-70.47117 4.51097,-14.83606 9.82381,-29.47158 16.03893,-43.60597 4.81169,-11.02677 11.32754,-21.35188 19.24675,-30.47401 7.51828,-8.42045 15.93875,-12.93139 24.8604,-13.53286 9.42288,-0.60149 14.43502,4.10997 15.13681,13.83359 0.40096,6.51583 -1.5037,15.237 -5.61367,26.16353 -7.51832,19.347 -20.04867,41.90183 -37.39086,67.06296 -0.40096,0.40097 -0.40096,1.10269 0,1.50366 0.40104,0.40096 1.10273,0.40096 1.50369,0 3.0073,-2.30565 6.2151,-4.41077 9.62336,-6.11488 5.01219,-2.6063 10.52559,-4.11 16.23949,-4.61122 10.72604,-0.70166 16.43988,4.21024 17.14162,14.53532 0.30069,3.80925 -0.10065,7.61853 -1.20294,11.22731 -1.00248,3.30803 -2.1051,7.21748 -3.40826,11.52799 -1.20289,4.31049 -2.20537,7.9192 -3.00731,10.6258 -0.80197,2.80685 -1.80443,6.51583 -3.10758,11.22726 -1.3031,4.7115 -2.3056,8.82146 -2.90707,12.02929 -1.80433,8.11965 -2.50603,14.63549 -2.2053,19.34694 0.40097,6.01464 2.80677,6.01464 3.60872,6.01464 h 0.30074 c 10.12458,-0.60147 22.05355,-18.24432 35.58646,-52.32717 0.10065,-0.20024 0.10065,-0.30069 0.20045,-0.50118 3.10759,-11.2273 7.01707,-22.25408 11.72852,-32.8799 5.61366,-12.32992 12.43022,-18.84576 20.44968,-19.34695 l 16.03897,-0.80198 c 0.60148,0 1.1027,0.40099 1.1027,1.00245 0,0.30072 -0.10065,0.60141 -0.30073,0.80194 v 0 c -2.50611,2.40581 -5.81416,8.82147 -9.82389,19.14649 -4.21023,11.12707 -7.11725,18.74552 -9.02192,23.85796 -1.9046,5.31289 -4.10992,12.53043 -6.41555,21.55238 -2.30563,9.02192 -3.30801,16.23945 -2.90707,21.65258 0.50123,7.11729 3.2078,7.11729 4.10997,7.11729 h 0.30069 c 1.40345,-0.10065 4.00976,-1.10267 8.72124,-5.41319 3.60877,-3.30793 6.71629,-7.01698 9.32268,-11.12697 2.40584,-3.90948 5.01211,-8.82143 7.91917,-14.83605 2.9071,-6.01464 5.4132,-11.22726 7.51828,-15.63802 2.30562,-4.7114 3.20779,-6.31533 3.80923,-6.91679 l 1.3032,-2.40583 c 4.91193,-19.8482 7.21756,-33.78205 6.71631,-41.50087 0,-1.3031 -0.30071,-2.60633 -0.90216,-3.80919 v 0 c -0.30076,-0.40093 -0.30076,-1.10268 0.20032,-1.40339 0.20041,-0.10065 0.40092,-0.20032 0.60143,-0.20032 l 11.12703,-0.70167 c 6.51583,-0.40096 10.6258,0 12.73091,1.40338 2.10512,1.40346 3.40829,3.70899 3.50852,6.11486 0,2.40588 -0.20026,4.91193 -0.70169,7.31781 -0.10065,0.60145 0.30073,1.10265 0.90218,1.2029 0.30077,0.10065 0.70173,-0.10065 0.90217,-0.3007 12.53048,-13.0317 25.5621,-20.0487 38.99477,-20.85069 10.72599,-0.7017 16.54016,4.41078 17.14164,15.13676 0.20024,3.40832 0,6.81658 -0.70174,10.22488 -0.7017,3.40826 -2.40583,10.02434 -5.41316,20.24919 -6.31534,21.95333 -9.32262,36.68908 -8.82142,43.90665 0.30069,5.1124 2.30557,5.71389 3.8093,5.71389 h 0.30075 c 1.40332,-0.10065 4.00971,-1.10266 8.62091,-5.51339 3.60872,-3.40826 6.71629,-7.2175 9.42287,-11.3275 2.90706,-4.71149 5.61362,-9.62338 8.01945,-14.63558 2.90707,-5.81411 5.31296,-11.0268 7.41804,-15.43748 0.70172,-1.60392 1.30318,-2.80683 1.80441,-3.80927 0,-0.10065 0.10065,-0.10065 0.10065,-0.20044 2.90708,-12.22978 6.31534,-22.35439 10.22484,-30.17335 4.51095,-9.22238 9.62336,-15.33728 15.03652,-18.34458 5.4132,-3.00729 12.8312,-4.71142 22.35427,-5.3129 v 0 c 1.20299,-0.10065 2.20539,0.80195 2.30568,1.90466 0,0.10065 0,0.10065 0,0.20046 0.10065,1.10266 -0.50124,2.30561 -1.70416,3.80927 -6.71633,7.31779 -13.23216,20.2492 -19.5475,38.49349 -6.3153,18.24435 -9.02195,33.58158 -8.32018,45.81129 0.40092,5.61367 1.80436,8.52068 4.21018,8.52068 h 0.20029 c 5.91436,-0.40094 13.4326,-7.7187 22.15384,-21.85307 8.52062,-13.4326 15.237,-27.86769 20.04866,-43.00445 0.60147,-2.0049 1.40343,-4.81169 2.50608,-8.62096 1.10275,-3.80925 1.90465,-6.3153 2.30563,-7.71874 0.401,-1.4034 1.2029,-3.40832 2.20533,-5.91438 0.70171,-2.00484 1.70416,-3.80927 2.9071,-5.51345 0.80192,-0.90209 2.00481,-2.10503 3.40824,-3.60872 1.40343,-1.50364 3.00731,-2.60632 4.91197,-3.20779 4.71142,-1.40344 9.52314,-2.30558 14.43505,-2.70656 l 11.12706,-0.7017 c 0.50117,-0.2003 1.10266,0.10065 1.30309,0.60145 0.20023,0.50123 -0.10065,1.10267 -0.60147,1.30313 l -0.20028,0.20028 c -5.01216,3.90957 -9.9241,13.23217 -14.53524,27.76744 -3.80926,12.33001 -7.01708,23.7578 -9.52322,33.88236 -2.50607,10.12458 -4.10993,16.33969 -4.71139,18.54502 -0.60152,2.2054 -1.90468,7.61854 -3.90954,15.83848 -1.50362,6.21509 -2.80682,11.32756 -3.9095,15.43748 -0.20025,0.50126 0,1.10272 0.50125,1.30323 0.30074,0.10065 0.7017,0.10065 1.00243,-0.20031 10.92656,-6.51582 20.9509,-14.3348 30.07305,-23.25648 5.11244,-5.11247 43.90669,-48.21714 45.71105,-20.85064 z M 274.63081,220.78897 c -3.90945,0.20025 -10.82632,6.21512 -21.25162,33.08034 -7.21752,18.54508 -14.23461,39.69645 -20.95091,62.95291 -0.2003,0.60147 0.20047,1.10266 0.70171,1.30323 0.40096,0.10065 0.90219,0 1.20294,-0.40104 18.04383,-27.56697 30.57424,-50.52273 37.1903,-68.4663 4.11,-12.22974 6.01461,-20.34942 5.81415,-23.95816 -0.30073,-4.41075 -2.00488,-4.41075 -2.50612,-4.41075 z m 260.3324,188.95901 c 0.20053,-0.50126 -0.10054,-1.10265 -0.60147,-1.3032 -0.20025,-0.10054 -0.40092,-0.10054 -0.60146,0 -5.41315,1.10271 -10.82627,2.0049 -16.13916,3.30808 -7.51829,1.80439 -18.94605,3.60875 -24.7602,9.92411 -0.10054,0.10065 -0.10054,0.20026 -0.20024,0.30074 -1.00245,2.20537 -1.20291,5.71385 -1.00245,10.12459 0.20027,3.10754 3.20784,6.01458 5.81411,8.11969 2.40587,1.90465 5.51339,2.80683 8.52073,2.50614 11.82872,-0.90225 21.55238,-11.92906 28.97039,-32.98015 z M 355.72782,280.73454 v 0 c 6.41559,-0.30071 14.43509,-2.70656 16.3397,-12.22969 0.90221,-4.31047 -1.70414,-9.22241 -3.30801,-10.62583 -1.60397,-1.40333 -3.80928,-2.00484 -6.71635,-1.80436 -2.90704,0.20032 -6.41562,2.00491 -9.72362,5.11244 -4.41073,4.10999 -4.21025,10.02427 -2.80682,13.93379 1.30313,3.30805 3.60873,5.51343 6.2151,5.61365 z" class="st5" style="opacity:1;fill:#fff;fill-opacity:.95;stroke:#4a154b;stroke-width:5;stroke-miterlimit:4;stroke-dasharray:none;stroke-opacity:1"/><g style="opacity:1;fill:#fff;fill-opacity:.94902;stroke:#4a154b;stroke-width:2.61575;stroke-miterlimit:4;stroke-dasharray:none;stroke-opacity:1" id="g1933" transform="matrix(1.9114953,0,0,1.9114953,-96.4853,462.78479)"><g style="fill:#fff;fill-opacity:.94902;stroke:#4a154b;stroke-width:2.61575;stroke-miterlimit:4;stroke-dasharray:none;stroke-opacity:1" id="g1924"><g style="fill:#fff;fill-opacity:.94902;stroke:#4a154b;stroke-width:2.61575;stroke-miterlimit:4;stroke-dasharray:none;stroke-opacity:1" id="g1915"><path style="fill:#fff;fill-opacity:.94902;stroke:#4a154b;stroke-width:2.61575;stroke-miterlimit:4;stroke-dasharray:none;stroke-opacity:1" id="path1746" d="M 134.03,83.07 139.2,71 c 5.66,4.19 13.06,6.4 20.44,6.4 5.42,0 8.87,-2.09 8.87,-5.3 -0.12,-8.87 -32.64,-1.97 -32.89,-24.26 -0.12,-11.33 9.98,-20.08 24.26,-20.08 8.5,0 17,2.09 23.03,6.9 l -4.83,12.33 c -5.55,-3.56 -12.41,-6.05 -18.94,-6.05 -4.43,0 -7.39,2.09 -7.39,4.8 0.12,8.75 32.89,3.94 33.26,25.25 0,11.58 -9.85,19.71 -23.9,19.71 -10.33,0 -19.82,-2.46 -27.08,-7.63" class="apiLogo__text" transform="translate(0,-1.3604726)"/><path style="fill:#fff;fill-opacity:.94902;stroke:#4a154b;stroke-width:2.61575;stroke-miterlimit:4;stroke-dasharray:none;stroke-opacity:1" id="path1748" d="m 333.79,66.63 c -2.58,4.56 -7.47,7.63 -13.08,7.63 -8.3,0 -15.03,-6.73 -15.03,-15.03 0,-8.3 6.73,-15.03 15.03,-15.03 5.61,0 10.5,3.08 13.08,7.63 l 14.38,-7.97 c -5.39,-9.61 -15.66,-16.11 -27.46,-16.11 -17.38,0 -31.47,14.09 -31.47,31.47 0,17.38 14.09,31.47 31.47,31.47 11.8,0 22.08,-6.5 27.46,-16.11 z" class="apiLogo__text" transform="translate(0,-1.3604726)"/><path style="fill:#fff;fill-opacity:.94902;stroke:#4a154b;stroke-width:2.61575;stroke-miterlimit:4;stroke-dasharray:none;stroke-opacity:1" id="path1750" d="m 192.27,1.57 h 17.98 v 87.9 h -17.98 z" class="apiLogo__text" transform="translate(0,-1.3604726)"/><path style="fill:#fff;fill-opacity:.94902;stroke:#4a154b;stroke-width:2.61575;stroke-miterlimit:4;stroke-dasharray:none;stroke-opacity:1" id="path1752" d="m 355.17,1.57 v 87.9 h 17.98 V 63.14 l 21.31,26.33 h 22.99 L 390.35,58.19 415.47,29 H 393.48 L 373.15,53.26 V 1.57 Z" class="apiLogo__text" transform="translate(0,-1.3604726)"/><path style="fill:#fff;fill-opacity:.94902;stroke:#4a154b;stroke-width:2.61575;stroke-miterlimit:4;stroke-dasharray:none;stroke-opacity:1" id="path1754" d="m 263.57,66.75 c -2.59,4.31 -8.01,7.51 -14.04,7.51 -8.3,0 -15.03,-6.73 -15.03,-15.03 0,-8.3 6.73,-15.03 15.03,-15.03 6.03,0 11.45,3.33 14.04,7.76 z m 0,-37.75 v 7.14 c -2.96,-4.93 -10.22,-8.37 -17.86,-8.37 -15.77,0 -28.21,13.92 -28.21,31.41 0,17.49 12.44,31.53 28.21,31.53 7.64,0 14.9,-3.45 17.86,-8.38 v 7.14 h 17.98 V 29 Z" class="apiLogo__text" transform="translate(0,-1.3604726)"/></g></g></g></svg>